Coordinates
version=1
nRows=21
nColumns=12
inDegrees=yes

Units are S.I. units (second, meters, Newtons, ...)
Angles are in degrees

endheader
time	SC_y	SC_z	SC_x	AC_y	AC_z	AC_x	GH_y	GH_z	GH_yy	EL_x	PS_y
       0.0              -32.08           2.63          1.235          59.75          2.902          -1.83         -141.9          84.08           49.1          119.3          37.72
   0.01673              -32.08           2.63          1.239          59.75          2.901         -1.828         -141.9          84.08          49.07          119.3          37.72
   0.03345              -32.08           2.63          1.244          59.75            2.9         -1.825         -141.9          84.07          49.05          119.3          37.72
   0.05018              -32.08          2.631          1.249          59.74          2.899         -1.822         -141.9          84.07          49.02          119.3          37.72
   0.06691              -32.07          2.631          1.255          59.74          2.898         -1.819         -141.9          84.07           49.0          119.3          37.73
   0.08363              -32.07          2.632           1.26          59.74          2.896         -1.815         -141.9          84.06          48.97          119.3          37.73
    0.1004              -32.07          2.632          1.267          59.74          2.895         -1.812         -141.8          84.05          48.94          119.3          37.73
    0.1171              -32.07          2.633          1.273          59.74          2.894         -1.808         -141.8          84.05           48.9          119.3          37.74
    0.1338              -32.06          2.633           1.28          59.74          2.892         -1.804         -141.8          84.04          48.87          119.4          37.74
    0.1505              -32.06          2.634          1.288          59.74          2.891           -1.8         -141.8          84.03          48.83          119.4          37.75
    0.1673              -32.06          2.634          1.296          59.74          2.889         -1.795         -141.8          84.03          48.79          119.4          37.75
     0.184              -32.05          2.635          1.305          59.74          2.887          -1.79         -141.7          84.02          48.74          119.4          37.76
    0.2007              -32.05          2.636          1.314          59.73          2.885         -1.784         -141.7          84.01          48.69          119.4          37.76
    0.2174              -32.05          2.637          1.324          59.73          2.883         -1.778         -141.7           84.0          48.64          119.4          37.77
    0.2342              -32.04          2.638          1.335          59.73          2.881         -1.772         -141.7          83.99          48.59          119.4          37.78
    0.2509              -32.04          2.639          1.347          59.73          2.879         -1.765         -141.6          83.98          48.53          119.4          37.78
    0.2676              -32.03           2.64           1.36          59.73          2.876         -1.758         -141.6          83.97          48.46          119.4          37.79
    0.2843              -32.02          2.641          1.375          59.72          2.873         -1.749         -141.5          83.95          48.39          119.4           37.8
    0.3011              -32.02          2.642           1.39          59.72           2.87          -1.74         -141.5          83.94          48.31          119.4          37.81
    0.3178              -32.01          2.643          1.407          59.72          2.867         -1.731         -141.5          83.92          48.22          119.4          37.82
    0.3345               -32.0          2.645          1.426          59.72          2.863          -1.72         -141.4          83.91          48.13          119.4          37.83
